<svg id="Layer_1" data-name="Layer 1" xmlns="http://www.w3.org/2000/svg" viewBox="0 0 34 40"><defs><style>.cls-1{fill:#0e99ac;fill-rule:evenodd;}</style></defs><title>frame-number</title><path class="cls-1" d="M17,0l3,1.72a18.52,18.52,0,0,1,12.82,8.65H31a17.1,17.1,0,0,1,0,19.26h1.76A18.52,18.52,0,0,1,20,38.28L17,40l-3-1.72A18.52,18.52,0,0,1,1.21,29.63H3A17.1,17.1,0,0,1,3,10.37H1.21A18.52,18.52,0,0,1,14,1.72ZM4.81,29.63h2a13.93,13.93,0,0,0,8,4.26L17,32.59l2.25,1.3a13.93,13.93,0,0,0,8-4.26h2a15.59,15.59,0,0,0,0-19.26h-2a13.93,13.93,0,0,0-8-4.26L17,7.41l-2.25-1.3a13.93,13.93,0,0,0-8,4.26H4.81a15.59,15.59,0,0,0,0,19.26Zm14.11-27L17,1.48,15.08,2.59V4.81L17,5.93l1.92-1.12ZM13.28,4.27a.72.72,0,0,1-.54.89,14.81,14.81,0,0,0-7,4,.73.73,0,0,1-1,0,.74.74,0,0,1,0-1,16.3,16.3,0,0,1,7.74-4.43A.74.74,0,0,1,13.28,4.27Zm8,.89a.72.72,0,0,1-.54-.89.74.74,0,0,1,.89-.55,16.3,16.3,0,0,1,7.74,4.43.74.74,0,1,1-1.05,1A14.81,14.81,0,0,0,21.26,5.16ZM17,38.52l1.92-1.11V35.19L17,34.07l-1.92,1.12v2.22Zm-4.26-3.68a.74.74,0,1,1-.35,1.43,16.2,16.2,0,0,1-7.74-4.42.74.74,0,0,1,0-1.05.73.73,0,0,1,1,0A14.81,14.81,0,0,0,12.74,34.84Zm8,.89a.72.72,0,0,1,.54-.89,14.81,14.81,0,0,0,7-4,.74.74,0,1,1,1.05,1,16.2,16.2,0,0,1-7.74,4.42A.72.72,0,0,1,20.72,35.73Z" transform="translate(0 0)"/></svg>